<svg viewBox="0 0 4000 4000" xmlns="http://www.w3.org/2000/svg" xmlns:xlink="http://www.w3.org/1999/xlink">
  <path fill="#4502c7" fill-rule="evenodd" stroke="none" d="M 3594 1772 C 3594 1772 3602.611328 1805.198486 3606 1822 C 3610.07373 1842.197998 3613.082764 1862.602783 3616 1883 C 3620.278809 1912.918701 3624.336182 1942.894287 3627 1973 C 3629.67749 2003.260864 3631.16626 2033.632324 3632 2064 C 3632.677002 2088.657227 3632.641602 2113.341797 3632 2138 C 3631.166504 2170.032471 3629.907715 2202.088867 3627 2234 C 3622.790283 2280.198242 3617.206055 2326.341797 3609 2372 C 3598.472412 2430.574219 3585.624756 2488.856445 3569 2546 C 3553.09668 2600.664551 3534.005615 2654.494141 3512 2707 C 3489.35376 2761.03418 3463.398438 2813.754639 3435 2865 C 3412.13623 2906.258301 3386.943115 2946.282227 3360 2985 C 3324.163818 3036.497559 3286.244629 3086.723145 3245 3134 C 3206.261475 3178.404541 3164.665283 3220.429932 3121 3260 C 3076.561279 3300.270996 3029.767578 3338.096191 2981 3373 C 2932.269287 3407.877441 2881.421631 3439.963867 2829 3469 C 2777.875977 3497.317383 2724.797607 3522.16626 2671 3545 C 2629.448486 3562.635986 2587.054932 3578.441406 2544 3592 C 2493.720215 3607.83374 2442.634766 3621.387207 2391 3632 C 2331.894043 3644.148438 2272.083008 3653.42041 2212 3659 C 2155.872559 3664.212158 2099.36084 3665.95166 2043 3665 C 1985.203003 3664.02417 1927.312012 3660.534912 1870 3653 C 1807.712646 3644.811035 1745.942017 3632.259277 1685 3617 C 1636.62146 3604.886475 1588.883301 3590.005371 1542 3573 C 1486.945435 3553.030762 1432.711182 3530.520752 1380 3505 C 1337.163452 3484.260254 1295.567139 3460.888184 1255 3436 C 1216.543335 3412.406738 1179.136108 3387.013672 1143 3360 C 1104.303589 3331.072266 1066.966675 3300.258545 1031 3268 C 998.71228 3239.041016 938 3177 938 3177 L 3594 1772 Z"/>
  <path fill="#619fff" fill-rule="evenodd" stroke="none" d="M 121 2044 C 121 2044 112.515732 2094.526611 110 2120 C 106.916168 2151.225586 104.070015 2182.63623 105 2214 C 106.232841 2255.577637 110.701553 2297.240234 119 2338 C 124.828186 2366.626465 132.953903 2394.955078 144 2422 C 153.979279 2446.433105 166.667038 2469.838867 181 2492 C 198.670975 2519.322266 218.578796 2545.418945 241 2569 C 261.030182 2590.066406 283.249359 2609.239746 307 2626 C 334.565155 2645.452148 364.124786 2662.400635 395 2676 C 439.569061 2695.630859 486.740265 2709.240234 534 2721 C 567.503662 2729.336914 601.685486 2735.190186 636 2739 C 678.783569 2743.75 721.953674 2744.881348 765 2745 C 805.700623 2745.112305 846.413757 2743.052002 887 2740 C 935.82019 2736.328857 984.490662 2730.613281 1033 2724 C 1082.193726 2717.293457 1131.193481 2709.105957 1180 2700 C 1219.844971 2692.565918 1259.460938 2683.919189 1299 2675 C 1355.862671 2662.172852 1412.575928 2648.63623 1469 2634 C 1517.221558 2621.491699 1565.214355 2608.082031 1613 2594 C 1669.935913 2577.221436 1726.536499 2559.305664 1783 2541 C 1848.577637 2519.739502 1914.074341 2498.175293 1979 2475 C 2065.236084 2444.217773 2150.905029 2411.80957 2236 2378 C 2305.1521 2350.524902 2373.620361 2321.344727 2442 2292 C 2515.649658 2260.393799 2589.062744 2228.216797 2662 2195 C 2740.437256 2159.27832 2818.56543 2122.846191 2896 2085 C 2983.324463 2042.320313 3070.169434 1998.609253 3156 1953 C 3249.947754 1903.077393 3343.050537 1851.513916 3435 1798 C 3516.969238 1750.294434 3597.6521 1700.388428 3678 1650 C 3741.526367 1610.160645 3804.865479 1569.977051 3867 1528 C 3898.113525 1506.980225 3959 1463 3959 1463 C 3959 1463 3928.789551 1499.398926 3913 1517 C 3885.444824 1547.716309 3856.666748 1577.318604 3828 1607 C 3801.636719 1634.296387 3775.079834 1661.414307 3748 1688 C 3713.846191 1721.530518 3679.269775 1754.645264 3644 1787 C 3607.281982 1820.68335 3569.776611 1853.508301 3532 1886 C 3453.24292 1953.738892 3374.545654 2021.645264 3293 2086 C 3177.23877 2177.357178 3058.798584 2265.415771 2938 2350 C 2831.748291 2424.398438 2722.753906 2494.872559 2613 2564 C 2545.18335 2606.713867 2476.327393 2647.784668 2407 2688 C 2359.110596 2715.779785 2310.758301 2742.775146 2262 2769 C 2205.147705 2799.578125 2147.658691 2828.970703 2090 2858 C 2041.931885 2882.200928 1993.939941 2906.614746 1945 2929 C 1873.832642 2961.552246 1801.891846 2992.518066 1729 3021 C 1667.035156 3045.212402 1604.242188 3067.352539 1541 3088 C 1495.382446 3102.893311 1449.257813 3116.233398 1403 3129 C 1370.502075 3137.968994 1337.894531 3146.617188 1305 3154 C 1270.87439 3161.65918 1236.536011 3168.47876 1202 3174 C 1157.213379 3181.159912 1112.170288 3186.90625 1067 3191 C 1031.091675 3194.254395 995.05542 3197.084229 959 3197 C 931.283264 3196.935303 903.580383 3194.746582 876 3192 C 849.543457 3189.365234 823.056152 3186.288086 797 3181 C 755.398193 3172.556641 714.429321 3160.940918 674 3148 C 645.872375 3138.996582 617.937012 3129.108643 591 3117 C 562.439087 3104.161377 535.007874 3088.847168 508 3073 C 479.929657 3056.529541 452.293793 3039.179688 426 3020 C 404.759308 3004.506348 384.485748 2987.650146 365 2970 C 345.783936 2952.594238 327.674988 2933.96875 310 2915 C 294.052795 2897.885254 278.386139 2880.446289 264 2862 C 243.24292 2835.384766 223.526627 2807.845215 206 2779 C 189.199539 2751.350098 174.252274 2722.515381 161 2693 C 145.962616 2659.508789 132.615173 2625.144043 122 2590 C 111.618881 2555.630859 104.234436 2520.357178 98 2485 C 93.333344 2458.53418 90.271767 2431.777832 88 2405 C 85.489647 2375.409668 83.720413 2345.695313 84 2316 C 84.295593 2284.604248 87.209381 2253.272949 90 2222 C 91.819115 2201.614258 93.773865 2181.210938 97 2161 C 103.27549 2121.685547 121 2044 121 2044 Z"/>
  <path fill="#ff3904" fill-rule="evenodd" stroke="none" d="M 576 1640 C 576 1640 637.574707 1485.518799 653 1452 C 665.152405 1425.593262 678.304871 1399.640625 692 1374 C 703.745667 1352.009277 716.122314 1330.347656 729 1309 C 738.600342 1293.085205 748.89856 1277.601563 759 1262 C 773.521423 1239.572021 787.518188 1216.776123 803 1195 C 819.80481 1171.363037 837.835449 1148.608887 856 1126 C 876.449219 1100.547607 897.088623 1075.205078 919 1051 C 943.994629 1023.388916 970.119507 996.778809 997 971 C 1015.740601 953.027344 1035.187622 935.783691 1055 919 C 1084.314331 894.166992 1114.238037 870.015137 1145 847 C 1172.025635 826.780273 1199.603271 807.244141 1228 789 C 1257.291138 770.181396 1287.447876 752.693604 1318 736 C 1348.480591 719.345459 1379.487549 703.608643 1411 689 C 1445.150391 673.168457 1479.871704 658.523682 1515 645 C 1552.876221 630.418457 1591.107056 616.600098 1630 605 C 1665.559937 594.394043 1701.642456 585.424805 1738 578 C 1789.921021 567.396973 1842.430298 559.682129 1895 553 C 1922.902222 549.453369 1950.909058 546.416992 1979 545 C 2035.928589 542.128418 2093.084473 540.878418 2150 544 C 2219.35791 547.803955 2288.662598 555.550293 2357 568 C 2413.788818 578.345703 2469.664795 593.568115 2525 610 C 2563.198242 621.343018 2600.965088 634.296387 2638 649 C 2679.460205 665.460449 2720.098633 684.055908 2760 704 C 2800.167969 724.077148 2839.596924 745.724365 2878 769 C 2923.855957 796.792969 2968.825928 826.200195 3012 858 C 3036.228027 875.844971 3059.291748 895.257324 3082 915 C 3110.480225 939.760986 3138.240234 965.38916 3165 992 C 3196.436523 1023.261719 3227.000977 1055.464844 3256 1089 C 3286.101074 1123.80957 3315.171631 1159.609863 3342 1197 C 3366.040771 1230.505127 3387.595947 1265.751953 3409 1301 C 3427.133301 1330.861816 3461 1392 3461 1392 C 3461 1392 3483 1433 3483 1433 C 3483 1433 3046.083252 1618.187256 2815 1664 C 2511.041504 1724.260254 2048.791504 1791.260254 1662.53125 1843.195313 C 1276.270752 1895.130127 912 1828 912 1828 L 576 1640 Z"/>
  <path fill="#ffb731" fill-rule="evenodd" stroke="none" d="M 417 1154 C 413.122467 1180.517578 410.83017 1207.262939 409 1234 C 407.154877 1260.955322 406.054901 1287.981445 406 1315 C 405.938324 1345.349854 406.204834 1375.779297 409 1406 C 413.068207 1449.984863 418.903717 1493.996582 429 1537 C 436.99939 1571.072021 461 1637 461 1637 C 461 1637 497.848297 1719.01416 523 1756 C 545.323914 1788.827393 572.109375 1818.772705 601 1846 C 635.2547 1878.282715 672.951721 1907.267578 713 1932 C 755.238831 1958.085205 800.781494 1978.878052 847 1997 C 895.986145 2016.207031 946.731079 2031.165527 998 2043 C 1057.85791 2056.817139 1118.948364 2065.174561 1180 2072 C 1226.142944 2077.158691 1272.589233 2079.649902 1319 2081 C 1370.312744 2082.492676 1421.700195 2081.885254 1473 2080 C 1527.752563 2077.987793 1582.455078 2074.171631 1637 2069 C 1691.49646 2063.833008 1745.7948 2056.638672 1800 2049 C 1852.474243 2041.605225 1904.883667 2033.597656 1957 2024 C 2014.606934 2013.391235 2071.855225 2000.868164 2129 1988 C 2185.867432 1975.194336 2242.63501 1961.862183 2299 1947 C 2365.720459 1929.407227 2431.961426 1910.000488 2498 1890 C 2546.226318 1875.394043 2594.236084 1860.053711 2642 1844 C 2693.265137 1826.769287 2744.255859 1808.709229 2795 1790 C 2847.273682 1770.726807 2899.266113 1750.678711 2951 1730 C 3000.261719 1710.30957 3049.385742 1690.239258 3098 1669 C 3163.878906 1640.217773 3229.206299 1610.148193 3294 1579 C 3357.549072 1548.449951 3483 1484 3483 1484 C 3483 1484 3631.950928 1407.879639 3706 1369 C 3744.817871 1348.618652 3822 1307 3822 1307 C 3822 1307 3742.181641 1336.184326 3702 1350 C 3616.373047 1379.441162 3530.405518 1407.928711 3444 1435 C 3394.886719 1450.387451 3345.410889 1464.596924 3296 1479 C 3247.075439 1493.261475 3198.184326 1507.662109 3149 1521 C 3099.842041 1534.330811 3050.373291 1546.48999 3001 1559 C 2939.715576 1574.528076 2878.508789 1590.386719 2817 1605 C 2743.200439 1622.533203 2669.229492 1639.386963 2595 1655 C 2535.505127 1667.513672 2475.853516 1679.332764 2416 1690 C 2298.334229 1710.970703 2180.52832 1731.636963 2062 1747 C 1954.045898 1760.992432 1845.637695 1772.091309 1737 1779 C 1644.814331 1784.862549 1552.359863 1788.487305 1460 1787 C 1367.172241 1785.505127 1274.028198 1782.248535 1182 1770 C 1108.449951 1760.210693 1035.677734 1744.176514 964 1725 C 922.963196 1714.020996 882.395996 1700.890625 843 1685 C 808.7099 1671.168945 775.188599 1655.193604 743 1637 C 718.69342 1623.261475 695.345886 1607.739746 673 1591 C 651.992065 1575.262451 631.821655 1558.296143 613 1540 C 593.706177 1521.245117 575.269653 1501.431152 559 1480 C 541.331116 1456.725586 525.7005 1431.810547 512 1406 C 500.241241 1383.847656 490.690338 1360.526123 482 1337 C 472.939148 1312.470947 464.671692 1287.526611 459 1262 C 454.327332 1240.969727 452.199524 1219.430664 450 1198 C 447.373962 1172.413574 445.657684 1146.712402 445 1121 C 444.377716 1096.672363 446 1048 446 1048 C 446 1048 456 952 456 952 C 456 952 444.96225 993.951904 435 1044 C 427.484589 1081.755615 421.26651 1124.822266 417 1154 Z"/>
</svg>
