<svg viewBox="0 0 382 230" xmlns="http://www.w3.org/2000/svg">
  <path fill="currentColor" stroke="#000000" stroke-width="4" d="M 124.589409 187.246872 C 124.589409 187.246872 124.730049 202.957932 129 209 C 134.608704 216.936432 140.509705 222.524506 154 224 C 171.882507 225.955902 193 216 193 216 C 193 216 213.590042 225.652832 232 224 C 246.464951 222.70134 254.135803 217.816025 260 209 C 263.894409 203.145264 262 188 262 188 C 262 188 124.589409 187.246872 124.589409 187.246872 Z"/>
  <path fill="#ffffff" fill-rule="evenodd" stroke="#000000" stroke-width="4" d="M 294 2 C 294 2 301.834167 38.76532 305 51 C 310.130127 70.825943 326.380035 114.963028 341 123 C 355.504364 130.973419 304.861481 177.78511 287 187 C 283.413483 188.84993 277.675201 185.004395 273 185 C 264.529175 184.992081 259.991333 190.023849 251 192 C 242.700333 193.824142 229.952637 193.357651 222 193 C 203.889526 192.185532 204.0103 187.261993 193 187 C 185.819763 186.829147 187.679764 192.737915 167 193 C 148.154053 193.238846 144.069427 194.310394 127 186 C 115.135834 180.224426 104.38147 182.92038 92 184 C 70.959152 185.834793 23.204824 128.147705 36.23877 112.211899 C 50.013603 95.370255 68.74704 71.696304 76 60 C 84.402885 46.449295 88.773712 15.855942 92 2 C 92.655632 -0.815186 294 0.850266 294 2 Z"/>
  <path fill="none" stroke="#000000" stroke-width="2" d="M 181.276138 111.940559 C 180.860336 115.243439 176.266998 128.716766 177 142 C 177.794098 156.390167 183.901855 170.816132 182.877655 178.880432 C 181.889252 186.655548 172.498184 185.968323 167.012238 184.91156"/>
  <path fill="none" stroke="#000000" stroke-width="2" d="M 205.153366 110.780945 C 205.191238 114.10508 207.308411 129.377731 207 145 C 206.757675 157.274643 203.859833 169.847122 205.110199 176.454803 C 206.458694 183.583817 210.409973 185.437897 217.170242 185.543808"/>
  <path fill="none" stroke="#000000" stroke-width="4" d="M 95.990067 81.635788 C 95.990067 93.659561 120.378441 169.813538 125 186"/>
  <path fill="none" stroke="#000000" stroke-width="2" d="M 192.37233 89.903259 L 192.37233 90.724625 C 192.37233 121.835213 192.325211 186.695648 192.261887 187.852997"/>
  <path fill="none" stroke="#000000" stroke-width="2" d="M 193.146698 193.689224 C 193.146698 193.689224 192.839249 208.493515 193 216"/>
  <path fill="none" stroke="#000000" stroke-width="4" d="M 284.957733 83.492188 C 284.957733 95.135818 266.624115 185.793823 262 188"/>
</svg>
