<svg viewBox="0 0 382 394" xmlns="http://www.w3.org/2000/svg">
  <linearGradient id="linearGradient1" x1="127" y1="54" x2="189" y2="54" gradientUnits="userSpaceOnUse">
    <stop offset="0" stop-color="#e98832"/>
    <stop offset="0.5" stop-color="#f2d229"/>
    <stop offset="1" stop-color="#b2d03b"/>
  </linearGradient>
  <linearGradient id="linearGradient2" x1="103" y1="146" x2="141" y2="214" gradientUnits="userSpaceOnUse">
    <stop offset="0" stop-color="#df699e"/>
    <stop offset="0.15" stop-color="#e98832"/>
    <stop offset="0.31" stop-color="#f2d229"/>
    <stop offset="0.48" stop-color="#b2d03b"/>
    <stop offset="0.66" stop-color="#4eae56"/>
    <stop offset="0.88" stop-color="#0495a2"/>
    <stop offset="1" stop-color="#3cb5c3"/>
  </linearGradient>
  <path fill="#ffffff" fill-rule="evenodd" stroke="#000000" stroke-width="4" d="M 236 127 C 240.204147 110.897064 249.385178 84.339691 258.977234 70.765076 C 263.09259 64.939636 273.601074 44.400085 284 56 C 292.740295 65.749725 294.591003 81.046967 297.198151 92.194092 C 301.319305 109.816528 304.34494 138.922913 291 154 C 282.264252 163.873856 271.367157 163.18782 260.02475 161.174377 C 260.003906 161.170685 269.940979 172.610062 271 174 C 275.840332 180.355087 283.043518 191.977646 287 199 C 295.259979 213.660583 293.986389 215.475677 299.221252 230.995468 C 307.638031 255.947327 309.268555 277.934448 303.573303 303.749786 C 299.049133 324.253754 291.987732 339.588135 277 355 C 255.996063 376.6026 232.706192 384.345062 203.419968 387.886871 C 184.726807 390.147797 161.415863 389.001831 143.731873 382.040344 C 124.90609 374.630798 111.375168 364.624023 98 350 C 76.377167 326.358215 70.417778 291.334961 74 261 C 75.536812 247.985962 79.724495 234.43457 79.925743 220.830841 C 80.162598 204.778076 83.351913 186.475891 62 186 C 42.177208 185.558716 36.53278 165.154739 33 150 C 31.122396 141.945557 33.117294 130.493744 35 123 C 37.709259 112.216309 42.800785 103.450439 50 96 C 60.415302 85.221405 62.393127 92.973206 71 103 C 76.365875 109.246002 93.130775 129.51825 98 136 C 109.708473 151.576752 95.399681 159.751328 117.599617 165.512619 C 151.680054 174.3564 180.026062 176.030136 209 155 C 211.807404 152.962021 233.653931 135.985596 236 127 Z"/>
  <path fill="none" stroke="#000000" stroke-width="2" d="M 153.225449 291.07489 L 152.111237 290.946228 C 146.035614 290.240631 139.265228 292.204163 143.165695 300.094727 C 144.021744 301.825378 145.229324 303.014984 146.697205 304.228821"/>
  <path fill="none" stroke="#000000" stroke-width="2" d="M 229.170547 300.271149 L 229.788513 299.37439 C 235.020706 291.812866 228.058258 286.263153 220.921875 285.372559"/>
  <path fill="none" stroke="#000000" stroke-width="2" d="M 282.095215 93.168793 L 281.225281 94.219208 C 267.647675 110.626404 266.115692 128.632874 269.380829 148.821671"/>
  <path fill="none" stroke="#000000" stroke-width="2" d="M 57.241184 128.421844 L 57.793026 128.898987 C 64.796082 134.95285 74.339882 145.502502 75.36689 155.299789"/>
  <path fill="url(#linearGradient2)" fill-rule="evenodd" stroke="#000000" stroke-width="3" d="M 198.119385 100.333923 C 212.197662 100.333923 221.451599 105.838409 229 118 C 239.528625 134.846008 242.67424 149.517303 236 167 C 232.148331 177.089157 220.242096 190.032776 211 196 C 209.781586 196.786789 219.405701 186.323013 220 185 C 225.59584 172.542847 226.203094 139.315598 226 142 C 224.351273 163.791733 208.854401 183.659988 193 194 C 185.318848 199.009262 178.141693 204.446426 170.59494 209.283554 C 170.591293 209.285889 203.331757 164.405075 208 143 C 208.015808 142.92749 181.93869 190.217087 151 190 C 142.433807 189.939896 121.562927 194.148773 110 199 C 108.747864 199.52533 157.117401 148.204712 155 150 C 145.19136 158.316483 112.919067 201.994873 78 207 C 69.573868 208.20755 50.590031 203.119583 42.615913 205.617447 C 41.497192 205.966339 44.873981 204.989563 46.001064 204.668701 C 60.623051 200.506699 99.99852 172.491898 106 169 C 113.114449 164.860535 49.884617 195.508057 48 198 C 47.293118 198.934891 114.666069 143.45369 108.542084 148.26474 C 103.321922 152.365738 55.078663 181.113495 55 181 C 53.864605 179.362244 101.947556 132.676514 125 122 C 133.332825 118.14093 198.119385 100.333923 198.119385 100.333923 Z"/>
  <path fill="url(#linearGradient1)" fill-rule="evenodd" stroke="#000000" stroke-width="3" d="M 149.465912 2.644318 L 150.498474 3.583862 C 159.86673 12.108368 168.139389 14.630768 171.002884 28.442078 C 172.660721 36.437622 171.700623 38.510956 177.857391 43.815521 C 186.506897 51.266785 182.100601 60.24054 185.271561 69.131714 C 186.998169 73.971985 194.408936 77.477478 196.656326 83.069427 C 203.594421 100.32608 188.528824 107.630157 173.653717 111.880341 C 162.127045 115.175873 143.370041 126.593567 130.997818 121.571014 C 120.871452 117.459656 125.120796 102.521332 130.039581 96.887909 C 134.21228 92.107727 129.213959 80.382782 132.35379 74.400299 C 134.792923 69.752869 140.351227 65.980164 142.29007 61.772858 C 143.171814 59.864136 139.187439 58.799835 138.282333 56.902039 C 133.479614 46.83197 146.3647 32.533264 148.683258 22.829529 C 150.281723 16.138733 150.942429 9.227325 150.395477 2.344971 C 150.36969 2.020477 149.225143 2.425232 149.465912 2.644318 Z"/>
  <path fill="none" stroke="#000000" stroke-width="3" d="M 184.489502 69.643433 L 184.489502 70.764923 C 184.489502 77.041656 169.699661 80.347351 165.226563 82.2789 C 155.441238 86.504517 143.6008 94.701782 132.559204 94.737"/>
  <path fill="none" stroke="#000000" stroke-width="3" d="M 171.571091 38.211395 L 171.571091 39.43988 C 171.571091 55.9599 152.594452 52.433014 144.20517 61.535858 C 143.972137 61.788513 143.922958 62.124237 143.849899 62.446564"/>
</svg>
