<svg viewBox="0 0 100 112" xmlns="http://www.w3.org/2000/svg">
  <path fill="currentColor" stroke="#000" stroke-width="4" stroke-linecap="round" stroke-linejoin="round" d="M 90.238029 27.164459 C 95.612259 36.786652 97.225464 51.190464 96 62 C 94.128349 78.512993 87.08342 89.345627 75 100 C 70.300957 104.143127 55.07106 109.66819 45 108 C 34.507595 106.262024 25.017927 98.991234 18 91 C 11.701432 83.827888 6.557866 69.391632 6 65 C 4.546868 53.560421 5.822385 44.356308 11 34 C 15.449366 25.100456 21.050184 19.891045 28 15 C 30.891983 12.964722 41.438877 6.910728 49 6 C 57.052151 5.030128 69.15464 8.100662 73 10 C 80.270264 13.590996 87.122078 21.584808 90.238029 27.164459 Z"/>
</svg>
