<svg xmlns="http://www.w3.org/2000/svg" version="1.1" viewBox="0 0 1000 1000" >
  <g id="preload-wrapper" style="transform-origin: center; transform-box: fill-box;">
    <animateTransform
      attributeName="transform"
      dur="3s"
      attributeType="XML"
      type="rotate"
      from="0"
      to="720"
      begin="0s"
      calcMode="spline"
      values="0; 720"
      keyTimes="0; 1"
      keySplines="0.5 0 0.5 1"
      repeatCount="indefinite"
    />
      <path fill="currentColor"
            d="M 839.637 361.062 C 851.396 364.726 863.931 375.131 870.095 386.123 L 876.069 396.727 L 876.646 495.626 C 877.035 560.205 876.457 597.035 875.103 601.854 C 871.827 614.389 861.801 627.114 850.042 633.665 C 840.792 638.873 837.507 639.639 824.981 639.639 C 812.455 639.639 809.17 638.873 799.92 633.665 C 788.351 627.303 778.324 614.578 774.859 602.431 C 773.704 598.001 772.928 558.861 772.928 499.868 C 772.928 440.875 773.695 401.735 774.859 397.304 C 778.334 385.356 788.351 372.433 799.532 366.269 C 810.713 360.096 828.645 357.777 839.637 361.062 Z"
            transform="matrix(0, -1, 1, 0, 325.241776, 1324.451157)"/>
      <path fill="currentColor"
            d="M 653.034 841.13 C 637.223 836.311 620.455 819.923 616.403 805.267 C 613.317 794.275 614.86 778.274 619.878 768.447 C 622.188 764.205 654.776 730.273 695.837 689.401 C 761.77 623.657 768.521 617.683 777.004 615.373 C 788.573 612.287 804.384 613.83 814.401 619.037 C 825.393 624.623 838.885 640.434 841.971 651.038 C 845.058 662.03 843.514 678.03 838.496 687.858 C 836.186 692.099 803.797 726.032 762.537 766.904 C 701.811 827.241 689.475 838.622 682.724 840.543 C 673.853 843.062 660.362 843.251 653.034 841.13 Z"
            transform="matrix(0, -1, 1, 0, 0.996735, 1457.377655)"/>
      <path fill="currentColor"
            d="M 678.104 158.339 C 689.673 161.813 698.156 169.709 766.011 237.962 C 831.755 303.895 837.729 310.646 840.039 319.129 C 843.126 330.698 841.582 346.509 836.375 356.526 C 830.789 367.518 814.978 381.01 804.374 384.096 C 793.382 387.183 777.382 385.639 767.555 380.621 C 763.313 378.311 729.381 345.723 688.509 304.662 C 622.765 238.729 616.791 231.978 614.481 223.495 C 611.394 211.926 612.937 196.115 618.145 186.098 C 623.352 175.882 639.163 161.804 648.801 158.916 C 657.284 156.417 670.586 156.218 678.104 158.339 Z"
            transform="matrix(0, -1, 1, 0, 455.975952, 998.543823)"/>
      <path fill="currentColor"
            d="M 395.65 873.864 C 384.28 870.588 371.356 860.174 365.193 848.992 C 356.52 833.569 356.52 814.293 365.193 798.87 C 371.555 787.301 384.28 777.274 396.427 773.809 C 406.065 771.3 591.916 771.3 601.554 773.809 C 613.701 777.274 626.426 787.301 632.788 798.87 C 637.995 808.12 638.762 811.405 638.762 823.931 C 638.762 836.457 637.995 839.742 632.788 848.992 C 626.426 860.562 613.701 870.588 601.554 874.053 C 592.683 876.562 404.134 876.373 395.65 873.864 Z"
            transform="matrix(0, -1, 1, 0, -325.159943, 1322.610199)"/>
      <path fill="currentColor"
            d="M 395.385 225.828 C 384.005 222.552 371.091 212.138 364.928 200.957 C 359.721 191.707 358.954 188.421 358.954 175.895 C 358.954 163.36 359.73 160.084 364.928 150.834 C 371.29 139.265 384.015 129.239 396.162 125.773 C 405.8 123.265 591.651 123.265 601.289 125.773 C 613.436 129.239 626.161 139.265 632.523 150.834 C 637.73 160.084 638.497 163.37 638.497 175.895 C 638.497 188.421 637.73 191.707 632.523 200.957 C 626.161 212.526 613.436 222.552 601.289 226.018 C 592.408 228.526 403.869 228.337 395.385 225.828 Z"
            transform="matrix(0, -1, 1, 0, 322.875984, 674.575035)"/>
      <path fill="currentColor"
            d="M 319.506 841.13 C 307.936 837.655 299.453 829.759 231.598 761.506 C 165.855 695.573 159.881 688.823 157.57 680.34 C 154.484 668.77 156.027 652.959 161.234 642.942 C 166.82 631.95 182.631 618.459 193.235 615.373 C 204.227 612.286 220.228 613.829 230.055 618.838 C 234.297 621.148 268.229 653.736 309.101 694.797 C 374.845 760.73 380.819 767.481 383.129 775.964 C 386.215 787.533 384.672 803.344 379.465 813.361 C 374.258 823.577 358.456 837.655 348.809 840.543 C 340.325 843.061 327.023 843.251 319.506 841.13 Z"
            transform="matrix(0, -1, 1, 0, -457.836288, 998.535294)"/>
      <path fill="currentColor"
            d="M 194.205 384.233 C 178.394 379.414 161.627 363.026 157.575 348.37 C 154.488 337.378 156.031 321.377 161.04 311.55 C 163.359 307.308 195.938 273.376 236.999 232.504 C 302.932 166.76 309.683 160.786 318.156 158.476 C 329.726 155.389 345.537 156.933 355.563 162.14 C 366.555 167.726 380.047 183.537 383.133 194.141 C 386.22 205.133 384.676 221.133 379.668 230.961 C 377.348 235.202 344.969 269.134 303.709 310.007 C 242.983 370.354 230.646 381.724 223.896 383.646 C 215.025 386.165 201.533 386.354 194.205 384.233 Z"
            transform="matrix(0, -1, 1, 0, -0.939377, 541.647125)"/>
      <path fill="currentColor"
            d="M 160.363 638.148 C 148.604 634.484 136.069 624.079 129.905 613.087 L 123.931 602.483 L 123.354 503.583 C 122.966 439.004 123.543 402.175 124.897 397.356 C 128.173 384.82 138.199 372.105 149.958 365.544 C 159.208 360.337 162.493 359.57 175.019 359.57 C 187.545 359.57 190.83 360.346 200.08 365.544 C 211.65 371.906 221.676 384.631 225.141 396.778 C 226.296 401.209 227.072 440.348 227.072 499.342 C 227.072 558.335 226.306 597.474 225.141 601.905 C 221.666 613.863 211.65 626.777 200.468 632.94 C 189.287 639.113 171.355 641.433 160.363 638.148 Z"
            transform="matrix(0, -1, 1, 0, -324.450993, 674.758419)"/>
      </g>
</svg>
